<mxfile host="Electron" modified="2024-01-29T10:44:17.824Z" agent="Mozilla/5.0 (Windows NT 10.0; Win64; x64) AppleWebKit/537.36 (KHTML, like Gecko) draw.io/23.0.2 Chrome/120.0.6099.109 Electron/28.1.0 Safari/537.36" etag="H2TfEagGOBMszCMVejVk" version="23.0.2" type="device">
  <diagram name="Page-1" id="D626KJAHtSIXeSMXO4OB">
    <mxGraphModel dx="1050" dy="621" grid="0" gridSize="10" guides="1" tooltips="1" connect="1" arrows="1" fold="1" page="1" pageScale="1" pageWidth="827" pageHeight="1169" math="0" shadow="0">
      <root>
        <mxCell id="0" />
        <mxCell id="1" parent="0" />
        <mxCell id="GLOnkcEBu_XLJ8Z-0Tgc-3" value="" style="edgeStyle=orthogonalEdgeStyle;rounded=0;orthogonalLoop=1;jettySize=auto;html=1;labelBackgroundColor=none;strokeColor=#457B9D;fontColor=default;" edge="1" parent="1" source="qU3Oe1qsSWi2eJaSDfva-1" target="qU3Oe1qsSWi2eJaSDfva-40">
          <mxGeometry relative="1" as="geometry" />
        </mxCell>
        <mxCell id="qU3Oe1qsSWi2eJaSDfva-1" value="Upload PDF" style="rounded=1;whiteSpace=wrap;html=1;labelBackgroundColor=none;fillColor=#A8DADC;strokeColor=#457B9D;fontColor=#1D3557;" parent="1" vertex="1">
          <mxGeometry x="156" y="70.5" width="120" height="60" as="geometry" />
        </mxCell>
        <mxCell id="qU3Oe1qsSWi2eJaSDfva-5" style="edgeStyle=orthogonalEdgeStyle;rounded=0;orthogonalLoop=1;jettySize=auto;html=1;exitX=1;exitY=0.5;exitDx=0;exitDy=0;labelBackgroundColor=none;strokeColor=#457B9D;fontColor=default;" parent="1" source="qU3Oe1qsSWi2eJaSDfva-4" target="qU3Oe1qsSWi2eJaSDfva-1" edge="1">
          <mxGeometry relative="1" as="geometry" />
        </mxCell>
        <mxCell id="qU3Oe1qsSWi2eJaSDfva-4" value="" style="shape=ellipse;html=1;fillColor=#A8DADC;strokeWidth=2;verticalLabelPosition=bottom;verticalAlignment=top;perimeter=ellipsePerimeter;labelBackgroundColor=none;strokeColor=#457B9D;fontColor=#1D3557;" parent="1" vertex="1">
          <mxGeometry x="77" y="92" width="18" height="17" as="geometry" />
        </mxCell>
        <mxCell id="qU3Oe1qsSWi2eJaSDfva-26" value="Combined Download" style="text;strokeColor=none;align=center;fillColor=none;html=1;verticalAlign=middle;whiteSpace=wrap;rounded=0;labelBackgroundColor=none;fontColor=#1D3557;" parent="1" vertex="1">
          <mxGeometry x="2248.9999755859376" y="293.99998779296874" width="60" height="30" as="geometry" />
        </mxCell>
        <mxCell id="GLOnkcEBu_XLJ8Z-0Tgc-7" value="" style="edgeStyle=orthogonalEdgeStyle;rounded=0;orthogonalLoop=1;jettySize=auto;html=1;labelBackgroundColor=none;strokeColor=#457B9D;fontColor=default;" edge="1" parent="1" source="qU3Oe1qsSWi2eJaSDfva-40" target="GLOnkcEBu_XLJ8Z-0Tgc-6">
          <mxGeometry relative="1" as="geometry" />
        </mxCell>
        <mxCell id="qU3Oe1qsSWi2eJaSDfva-40" value="Convet to Excel" style="rounded=1;whiteSpace=wrap;html=1;labelBackgroundColor=none;fillColor=#A8DADC;strokeColor=#457B9D;fontColor=#1D3557;" parent="1" vertex="1">
          <mxGeometry x="354" y="70.5" width="120" height="60" as="geometry" />
        </mxCell>
        <mxCell id="qU3Oe1qsSWi2eJaSDfva-46" value="" style="html=1;shape=mxgraph.sysml.actFinal;strokeWidth=2;verticalLabelPosition=bottom;verticalAlignment=top;labelBackgroundColor=none;fillColor=#A8DADC;strokeColor=#457B9D;fontColor=#1D3557;" parent="1" vertex="1">
          <mxGeometry x="615" y="372" width="40" height="40" as="geometry" />
        </mxCell>
        <mxCell id="GLOnkcEBu_XLJ8Z-0Tgc-11" style="edgeStyle=orthogonalEdgeStyle;rounded=0;orthogonalLoop=1;jettySize=auto;html=1;exitX=0.5;exitY=1;exitDx=0;exitDy=0;entryX=0.5;entryY=0;entryDx=0;entryDy=0;labelBackgroundColor=none;strokeColor=#457B9D;fontColor=default;" edge="1" parent="1" source="GLOnkcEBu_XLJ8Z-0Tgc-4" target="GLOnkcEBu_XLJ8Z-0Tgc-10">
          <mxGeometry relative="1" as="geometry" />
        </mxCell>
        <mxCell id="GLOnkcEBu_XLJ8Z-0Tgc-4" value="Select all tables" style="rounded=1;whiteSpace=wrap;html=1;labelBackgroundColor=none;fillColor=#A8DADC;strokeColor=#457B9D;fontColor=#1D3557;" vertex="1" parent="1">
          <mxGeometry x="181" y="198" width="120" height="60" as="geometry" />
        </mxCell>
        <mxCell id="GLOnkcEBu_XLJ8Z-0Tgc-13" style="edgeStyle=orthogonalEdgeStyle;rounded=0;orthogonalLoop=1;jettySize=auto;html=1;entryX=0.5;entryY=0;entryDx=0;entryDy=0;labelBackgroundColor=none;strokeColor=#457B9D;fontColor=default;" edge="1" parent="1" source="GLOnkcEBu_XLJ8Z-0Tgc-5" target="GLOnkcEBu_XLJ8Z-0Tgc-10">
          <mxGeometry relative="1" as="geometry">
            <Array as="points">
              <mxPoint x="587" y="310" />
              <mxPoint x="414" y="310" />
            </Array>
          </mxGeometry>
        </mxCell>
        <mxCell id="GLOnkcEBu_XLJ8Z-0Tgc-5" value="Select Specific tables&amp;nbsp;" style="rounded=1;whiteSpace=wrap;html=1;labelBackgroundColor=none;fillColor=#A8DADC;strokeColor=#457B9D;fontColor=#1D3557;" vertex="1" parent="1">
          <mxGeometry x="527" y="198" width="120" height="60" as="geometry" />
        </mxCell>
        <mxCell id="GLOnkcEBu_XLJ8Z-0Tgc-8" value="" style="edgeStyle=orthogonalEdgeStyle;rounded=0;orthogonalLoop=1;jettySize=auto;html=1;labelBackgroundColor=none;strokeColor=#457B9D;fontColor=default;" edge="1" parent="1" source="GLOnkcEBu_XLJ8Z-0Tgc-6" target="GLOnkcEBu_XLJ8Z-0Tgc-4">
          <mxGeometry relative="1" as="geometry" />
        </mxCell>
        <mxCell id="GLOnkcEBu_XLJ8Z-0Tgc-9" value="" style="edgeStyle=orthogonalEdgeStyle;rounded=0;orthogonalLoop=1;jettySize=auto;html=1;labelBackgroundColor=none;strokeColor=#457B9D;fontColor=default;" edge="1" parent="1" source="GLOnkcEBu_XLJ8Z-0Tgc-6" target="GLOnkcEBu_XLJ8Z-0Tgc-5">
          <mxGeometry relative="1" as="geometry" />
        </mxCell>
        <mxCell id="GLOnkcEBu_XLJ8Z-0Tgc-6" value="" style="rhombus;whiteSpace=wrap;html=1;labelBackgroundColor=none;fillColor=#A8DADC;strokeColor=#457B9D;fontColor=#1D3557;" vertex="1" parent="1">
          <mxGeometry x="402.5" y="217" width="23" height="22" as="geometry" />
        </mxCell>
        <mxCell id="GLOnkcEBu_XLJ8Z-0Tgc-10" value="Download file" style="rounded=1;whiteSpace=wrap;html=1;labelBackgroundColor=none;fillColor=#A8DADC;strokeColor=#457B9D;fontColor=#1D3557;" vertex="1" parent="1">
          <mxGeometry x="354" y="362" width="120" height="60" as="geometry" />
        </mxCell>
        <mxCell id="GLOnkcEBu_XLJ8Z-0Tgc-14" style="edgeStyle=orthogonalEdgeStyle;rounded=0;orthogonalLoop=1;jettySize=auto;html=1;exitX=1;exitY=0.5;exitDx=0;exitDy=0;entryX=0;entryY=0.5;entryDx=0;entryDy=0;entryPerimeter=0;labelBackgroundColor=none;strokeColor=#457B9D;fontColor=default;" edge="1" parent="1" source="GLOnkcEBu_XLJ8Z-0Tgc-10" target="qU3Oe1qsSWi2eJaSDfva-46">
          <mxGeometry relative="1" as="geometry" />
        </mxCell>
        <mxCell id="GLOnkcEBu_XLJ8Z-0Tgc-15" value="End" style="text;strokeColor=none;align=center;fillColor=none;html=1;verticalAlign=middle;whiteSpace=wrap;rounded=0;labelBackgroundColor=none;fontColor=#1D3557;" vertex="1" parent="1">
          <mxGeometry x="604.9999877929688" y="405.99998779296874" width="60" height="30" as="geometry" />
        </mxCell>
        <mxCell id="GLOnkcEBu_XLJ8Z-0Tgc-16" value="Start" style="text;strokeColor=none;align=center;fillColor=none;html=1;verticalAlign=middle;whiteSpace=wrap;rounded=0;labelBackgroundColor=none;fontColor=#1D3557;" vertex="1" parent="1">
          <mxGeometry x="55.99998779296875" y="66.99998779296875" width="60" height="30" as="geometry" />
        </mxCell>
      </root>
    </mxGraphModel>
  </diagram>
</mxfile>
